# AST/ASF file generated using VICON BodyLanguage
# -----------------------------------------------
:version 1.10
:name VICON
:units
  mass 1.0
  length 0.45
  angle deg
:documentation
   .ast/.asf automatically generated from VICON data using
   VICON BodyBuilder and BodyLanguage model FoxedUp or BRILLIANT.MOD
:root
   order TX TY TZ RX RY RZ
   axis XYZ
   position 0 0 0  
   orientation 0 0 0 
:bonedata
  begin
     id 1 
     name lhipjoint
     direction 0.567149 -0.783011 0.255413 
     length 2.28399 
     axis 0 0 0  XYZ
  end
  begin
     id 2 
     name lfemur
     direction 0.34202 -0.939693 0  
     length 7.34031  
     axis 0 0 20  XYZ
    dof rx ry rz
    limits (-160.0 20.0)
           (-70.0 70.0)
           (-60.0 70.0)
  end
  begin
     id 3 
     name ltibia
     direction 0.34202 -0.939693 0   
     length 6.9833   
     axis 0 0 20   XYZ
    dof rx
    limits (-10.0 170.0)
  end
  begin
     id 4 
     name lfoot
     direction 0.136498 -0.375025 0.91691   
     length 2.33665   
     axis -90 7.62852e-016 20   XYZ
    dof rx rz
    limits (-45.0 90.0)
           (-70.0 20.0)
  end
  begin
     id 5 
     name ltoes
     direction 1.5367e-011 -4.21617e-011 1   
     length 1.15039   
     axis -90 7.62852e-016 20   XYZ
    dof rx
    limits (-90.0 20.0)
  end
  begin
     id 6 
     name rhipjoint
     direction -0.602854 -0.758518 0.247423   
     length 2.35775  
     axis 0 0 0  XYZ 
  end
  begin
     id 7 
     name rfemur
     direction -0.34202 -0.939693 0   
     length 7.43932   
     axis 0 0 -20   XYZ
    dof rx ry rz
    limits (-160.0 20.0)
           (-70.0 70.0)
           (-70.0 60.0)
  end
  begin
     id 8 
     name rtibia
     direction -0.34202 -0.939693 0   
     length 7.11893   
     axis 0 0 -20   XYZ
    dof rx
    limits (-10.0 170.0)
 end
 begin
     id 9 
     name rfoot
     direction -0.131771 -0.362037 0.922803   
     length 2.53019  
     axis -90 -7.62852e-016 -20   XYZ
    dof rx rz
    limits (-45.0 90.0)
           (-20.0 70.0)
  end
  begin
     id 10 
     name rtoes
     direction -1.53733e-011 -4.21932e-011 1   
     length 1.24596   
     axis -90 -7.62852e-016 -20   XYZ
    dof rx
    limits (-90.0 20.0)
  end
  begin
     id 11 
     name lowerback
     direction 0.0235427 0.999023 -0.0374125   
     length 2.21768   
     axis 0 0 0   XYZ
    dof rx ry rz
    limits (-20.0 45.0)
           (-30.0 30.0)
           (-30.0 30.0)
  end
  begin
     id 12 
     name upperback
     direction 0.0302156 0.996818 -0.073759   
     length 2.20352   
     axis 0 0 0   XYZ
    dof rx ry rz
    limits (-20.0 45.0)
           (-30.0 30.0)
           (-30.0 30.0)
  end
  begin
     id 13 
     name thorax
     direction 0.0187169 0.998235 -0.0563532   
     length 2.22103   
     axis 0 0 0   XYZ
    dof rx ry rz
    limits (-20.0 45.0)
           (-30.0 30.0)
           (-30.0 30.0)
  end
  begin
     id 14 
     name lowerneck
     direction -0.119528 0.987423 0.103481   
     length 1.72948   
     axis 0 0 0   XYZ
    dof rx ry rz
    limits (-20.0 45.0)
           (-30.0 30.0)
           (-30.0 30.0)
  end
  begin
     id 15 
     name upperneck
     direction 0.248049 0.963095 -0.104496   
     length 1.74979   
     axis 0 0 0   XYZ
    dof rx ry rz
    limits (-20.0 45.0)
           (-30.0 30.0)
           (-30.0 30.0)
  end
  begin
     id 16
     name head
     direction 0.0903589 0.994284 -0.056876  
     length 1.78268  
     axis 0 0 0   XYZ
    dof rx ry rz
    limits (-20.0 45.0)
           (-30.0 30.0)
           (-30.0 30.0)
  end
  begin
     id 17 
     name lclavicle
     direction 0.946008 0.242039 -0.215608  
     length 3.80783  
     axis 0 0 0   XYZ
    dof ry rz
    limits (-20.0 10.0)
           (0.0 20.0)
  end
  begin
     id 18 
     name lhumerus
     direction 1 -4.48991e-011 -2.25695e-027   
     length 4.83125   
     axis 180 -30 -90   XYZ
    dof rx ry rz
    limits (-60.0 90.0)
           (-90.0 90.0)
           (-90.0 90.0)
  end
  begin
     id 19
     name lradius
     direction 0.999991 0.00366712 -0.00211721   
     length 3.00391   
     axis 180 -30 -90   XYZ
    dof rx
    limits (-10.0 170.0)
  end
  begin
     id 20
     name lwrist
     direction 0.999991 0.00393016 -0.00141978   
     length 1.50195   
     axis -1.00488e-014 90 90   XYZ
    dof ry
    limits (-180.0 0.0)
 end
  begin
     id 21 
     name lhand
     direction 1 -4.49123e-011 2.72098e-026   
     length 1.2717   
     axis -1.73687e-014 90 90   XYZ
    dof rx rz
    limits (-90.0 90.0)
           (-45.0 45.0)
  end
  begin
     id 22 
     name lfingers
     direction 1 -4.48678e-011 5.4479e-026   
     length 1.02528   
     axis -3.47372e-014 90 90   XYZ
    dof rx
    limits (0.0 90.0)
  end
  begin
     id 23
     name lthumb
     direction 0.707107 -6.34851e-011 0.707107   
     length 1.4721   
     axis -90 45 -1.62303e-014   XYZ
    dof rx rz
    limits (-45.0 45.0)
           (-45.0 45.0)
  end
  begin
     id 24 
     name rclavicle
     direction -0.981723 0.189447 -0.0181673   
     length 3.74989  
     axis 0 0 0   XYZ 
    dof ry rz
    limits (-10.0 20.0)
           (-20.0 0.0)
  end
  begin
     id 25 
     name rhumerus
     direction -1 -4.48985e-011 2.38206e-027  
     length 4.61118   
     axis 180 30 90   XYZ
    dof rx ry rz
    limits (-90.0 60.0)
           (-90.0 90.0)
           (-90.0 90.0)
  end
  begin
     id 26 
     name rradius
     direction -1 -4.48977e-011 7.41019e-027   
     length 2.91491   
     axis 180 30 90   XYZ
    dof rx
    limits (-10.0 170.0)
  end
  begin
     id 27 
     name rwrist
     direction -1 -4.48549e-011 1.3624e-026   
     length 1.45745   
     axis -1.00488e-014 -90 -90   XYZ
    dof ry
    limits (-180.0 0.0)
  end
  begin
     id 28
     name rhand
     direction -1 -4.49107e-011 2.72109e-026   
     length 1.30769   
     axis -1.73687e-014 -90 -90   XYZ
    dof rx rz
    limits (-90.0 90.0)
           (-45.0 45.0)
  end
  begin
     id 29
     name rfingers
     direction -1 -4.48919e-011 5.44468e-026   
     length 1.05429   
     axis -3.47372e-014 -90 -90   XYZ
    dof rx
    limits (0.0 90.0)
  end
  begin
     id 30
     name rthumb
     direction -0.707107 -6.35315e-011 0.707107   
     length 1.51376   
     axis -90 -45 1.62303e-014   XYZ
    dof rx rz
    limits (-45.0 45.0)
           (-45.0 45.0)
  end
:hierarchy
  begin
    root lhipjoint rhipjoint lowerback
    lhipjoint lfemur
    lfemur ltibia
    ltibia lfoot
    lfoot ltoes
    rhipjoint rfemur
    rfemur rtibia
    rtibia rfoot
    rfoot rtoes
    lowerback upperback
    upperback thorax
    thorax lowerneck lclavicle rclavicle
    lowerneck upperneck
    upperneck head
    lclavicle lhumerus
    lhumerus lradius
    lradius lwrist
    lwrist lhand lthumb
    lhand lfingers
    rclavicle rhumerus
    rhumerus rradius
    rradius rwrist
    rwrist rhand rthumb
    rhand rfingers
  end

#!OML:ASF X:\für Bonn\!DataBase\2005_08_11_Bastian_Final\c3d\Bastian.ASF
:FULLY-SPECIFIED
:DEGREES
1
root -9.43223 17.2911 -0.204568 57.8651 -81.4564 -69.6345
lowerback 8.00482 -3.1681 6.06668
upperback 5.16887 -4.19892 5.68758
thorax 0.921824 -2.20617 2.80281
lowerneck -10.1474 -2.87753 -3.85957
upperneck -8.33695 -3.67912 3.33791
head -0.780608 -1.8853 1.60485
rclavicle -1.02871e-014 -4.77083e-015
rhumerus -41.3663 2.94784 -78.4733
rradius 55.7371
rwrist 4.35124
rhand -12.0915 6.08545
rfingers 7.12502
rthumb 13.9688 -23.4253
lclavicle -1.02871e-014 -4.77083e-015
lhumerus -24.2845 2.1371 91.0563
lradius 9.43058
lwrist 0.188768
lhand -7.26155 -5.88445
lfingers 7.12502
lthumb 18.6193 23.2445
rfemur -10.8672 -4.63307 30.9163
rtibia 31.82
rfoot -2.69406 -8.21355
rtoes 3.58898
lfemur 6.43901 2.57254 -5.92385
ltibia 67.3618
lfoot 12.523 -6.70584
ltoes -21.9891
2
root -9.58558 17.3156 -0.214476 60.4674 -81.4329 -72.4201
lowerback 8.25415 -3.06167 6.2795
upperback 5.20712 -4.03047 5.75737
thorax 0.817396 -2.12371 2.76045
lowerneck -10.2162 -2.86222 -3.88655
upperneck -8.29866 -3.65719 3.26026
head -0.759359 -1.87309 1.58356
rclavicle -5.6753e-014 3.65764e-014
rhumerus -40.7477 3.22516 -78.4775
rradius 56.2933
rwrist 4.33609
rhand -12.1589 6.09803
rfingers 7.12502
rthumb 13.9039 -23.4171
lclavicle -5.6753e-014 3.65764e-014
lhumerus -24.8817 1.82689 91.2567
lradius 8.49756
lwrist -1.63514
lhand -6.78142 -5.71553
lfingers 7.12502
lthumb 19.081 23.3685
rfemur -9.88538 -4.75096 31.1728
rtibia 31.43
rfoot -3.02033 -7.87172
rtoes 3.85451
lfemur 5.09326 2.93145 -5.66064
ltibia 68.798
lfoot 11.3715 -6.79697
ltoes -23.3057
3
root -9.7383 17.3404 -0.223662 63.0154 -81.429 -75.1417
lowerback 8.49104 -2.96403 6.4406
upperback 5.23607 -3.87564 5.82153
thorax 0.713442 -2.04898 2.74033
lowerneck -10.2343 -2.84604 -3.96657
upperneck -8.26587 -3.62878 3.2125
head -0.746691 -1.85623 1.58223
rclavicle -2.35063e-014 4.92986e-014
rhumerus -40.1108 3.59824 -78.4768
rradius 56.8548
rwrist 4.28956
rhand -12.1901 6.08742
rfingers 7.12502
rthumb 13.8738 -23.4298
lclavicle -2.35063e-014 4.92986e-014
lhumerus -25.5426 1.56527 91.4545
lradius 7.68943
lwrist -3.36692
lhand -6.24968 -5.57662
lfingers 7.12502
lthumb 19.5923 23.4562
rfemur -8.89585 -4.79042 31.3817
rtibia 31.0199
rfoot -3.31867 -7.60438
rtoes 4.11412
lfemur 3.79439 3.29537 -5.47077
ltibia 69.9485
lfoot 10.4103 -6.93906
ltoes -24.1528
4
root -9.89003 17.3641 -0.232218 65.6271 -81.3888 -77.9146
lowerback 8.69929 -2.85408 6.6358
upperback 5.26928 -3.70449 5.87914
thorax 0.628092 -1.96482 2.69041
lowerneck -10.2321 -2.83705 -4.03186
upperneck -8.26055 -3.61195 3.17309
head -0.745705 -1.84586 1.58136
rclavicle 9.64106e-015 -9.22361e-014
rhumerus -39.4647 3.98479 -78.48
rradius 57.4709
rwrist 4.1175
rhand -12.1994 6.06791
rfingers 7.12502
rthumb 13.8648 -23.4499
lclavicle 9.64106e-015 -9.22361e-014
lhumerus -26.211 1.25636 91.6522
lradius 6.99542
lwrist -4.91383
lhand -5.75179 -5.36245
lfingers 7.12502
lthumb 20.0709 23.6209
rfemur -7.91483 -4.70013 31.6205
rtibia 30.608
rfoot -3.64902 -7.45816
rtoes 4.42843
lfemur 2.54836 3.64646 -5.28281
ltibia 70.7901
lfoot 9.59861 -7.28885
ltoes -25.5402
5
root -10.0403 17.3854 -0.240574 68.125 -81.3705 -80.561
lowerback 8.88951 -2.74872 6.783
upperback 5.30824 -3.54356 5.91886
thorax 0.560652 -1.88585 2.64699
lowerneck -10.2571 -2.82548 -4.09148
upperneck -8.23846 -3.59128 3.13829
head -0.735145 -1.83366 1.58047
rclavicle 4.00551e-014 2.06736e-014
rhumerus -38.7606 4.37976 -78.483
rradius 58.0818
rwrist 3.95731
rhand -12.1976 6.038
rfingers 7.12502
rthumb 13.8665 -23.4797
lclavicle 4.00551e-014 2.06736e-014
lhumerus -26.8941 0.958134 91.8192
lradius 6.40235
lwrist -6.24302
lhand -5.31563 -5.19189
lfingers 7.12502
lthumb 20.4901 23.7469
rfemur -6.95319 -4.57136 31.8159
rtibia 30.2107
rfoot -3.96796 -7.34027
rtoes 4.49501
lfemur 1.37306 3.95312 -5.19025
ltibia 71.3134
lfoot 8.95994 -7.77456
ltoes -26.876
6
root -10.1883 17.4043 -0.249515 70.638 -81.3274 -83.2066
lowerback 9.06544 -2.64386 6.92729
upperback 5.33745 -3.38296 5.9559
thorax 0.491414 -1.8069 2.60114
lowerneck -10.2382 -2.8056 -4.12811
upperneck -8.235 -3.56313 3.09703
head -0.738386 -1.81843 1.57463
rclavicle 5.36719e-015 1.27222e-014
rhumerus -38.0544 4.8139 -78.4937
rradius 58.7293
rwrist 3.78227
rhand -12.1685 5.97008
rfingers 7.12502
rthumb 13.8946 -23.5457
lclavicle 5.36719e-015 1.27222e-014
lhumerus -27.6292 0.665904 91.9888
lradius 5.95821
lwrist -7.30406
lhand -4.97234 -4.96579
lfingers 7.12502
lthumb 20.82 23.9371
rfemur -6.01974 -4.32932 32.0315
rtibia 29.8327
rfoot -4.29614 -7.32444
rtoes 4.68961
lfemur 0.236385 4.25093 -5.1023
ltibia 71.5744
lfoot 8.44754 -8.34975
ltoes -27.9519
7
root -10.333 17.4204 -0.257612 73.163 -81.2706 -85.8655
lowerback 9.24799 -2.53435 7.0683
upperback 5.37691 -3.21653 5.98957
thorax 0.430036 -1.7251 2.55239
lowerneck -10.1874 -2.78589 -4.15377
upperneck -8.26812 -3.53793 3.05751
head -0.758427 -1.80534 1.56829
rclavicle -6.50026e-014 3.65764e-014
rhumerus -37.2981 5.27382 -78.5119
rradius 59.3756
rwrist 3.51937
rhand -12.1787 5.94864
rfingers 7.12502
rthumb 13.8848 -23.5679
lclavicle -6.50026e-014 3.65764e-014
lhumerus -28.3413 0.362933 92.1494
lradius 5.58308
lwrist -8.03138
lhand -4.7356 -4.77993
lfingers 7.12502
lthumb 21.0474 24.0979
rfemur -5.12254 -4.14426 32.2368
rtibia 29.4975
rfoot -4.64428 -7.25519
rtoes 4.73379
lfemur -0.855181 4.5063 -5.04487
ltibia 71.6309
lfoot 8.01894 -9.00632
ltoes -28.4731
8
root -10.475 17.434 -0.265524 75.7764 -81.2155 -88.5759
lowerback 9.39166 -2.41692 7.18802
upperback 5.41028 -3.04391 6.02316
thorax 0.385094 -1.64007 2.51213
lowerneck -10.1106 -2.77532 -4.23723
upperneck -8.31486 -3.519 3.05615
head -0.785022 -1.79393 1.58472
rclavicle 7.45443e-016 5.88403e-014
rhumerus -36.5396 5.80309 -78.5003
rradius 60.0505
rwrist 3.20787
rhand -12.1796 5.86763
rfingers 7.12502
rthumb 13.8839 -23.6489
lclavicle 7.45443e-016 5.88403e-014
lhumerus -29.0635 0.0710731 92.3194
lradius 5.29295
lwrist -8.53917
lhand -4.62137 -4.67803
lfingers 7.12502
lthumb 21.1572 24.1875
rfemur -4.29276 -3.94257 32.4237
rtibia 29.2053
rfoot -4.99901 -7.17891
rtoes 4.78833
lfemur -1.95581 4.74897 -5.02251
ltibia 71.5358
lfoot 7.64612 -9.66437
ltoes -28.063
9
root -10.6139 17.4445 -0.272843 78.5691 -81.1524 -91.4579
lowerback 9.54622 -2.28998 7.29094
upperback 5.43369 -2.85666 6.05256
thorax 0.324727 -1.54814 2.47551
lowerneck -9.97887 -2.75641 -4.29531
upperneck -8.38534 -3.49369 3.04146
head -0.829006 -1.78001 1.59376
rclavicle -4.77083e-015 -4.77083e-015
rhumerus -35.762 6.29398 -78.4843
rradius 60.6676
rwrist 2.96751
rhand -12.226 5.87461
rfingers 7.12502
rthumb 13.8392 -23.645
lclavicle -4.77083e-015 -4.77083e-015
lhumerus -29.8171 -0.213419 92.4848
lradius 5.09663
lwrist -8.73467
lhand -4.58564 -4.6101
lfingers 7.12502
lthumb 21.1915 24.2516
rfemur -3.51393 -3.77343 32.5872
rtibia 28.9673
rfoot -5.3813 -7.04133
rtoes 4.85568
lfemur -3.02228 4.99564 -5.00954
ltibia 71.3071
lfoot 7.20344 -10.4479
ltoes -27.335
10
root -10.7507 17.4518 -0.278918 81.3785 -81.0706 -94.3192
lowerback 9.65795 -2.15815 7.40583
upperback 5.44895 -2.6648 6.07459
thorax 0.27897 -1.45279 2.42157
lowerneck -9.82282 -2.73995 -4.34771
upperneck -8.46791 -3.47306 3.02951
head -0.880696 -1.76857 1.60314
rclavicle 2.39536e-014 -7.4743e-014
rhumerus -34.9685 6.83147 -78.4474
rradius 61.2927
rwrist 2.69116
rhand -12.3139 5.89123
rfingers 7.12502
rthumb 13.7545 -23.6341
lclavicle 2.39536e-014 -7.4743e-014
lhumerus -30.552 -0.515807 92.6325
lradius 4.92959
lwrist -8.73808
lhand -4.61746 -4.67046
lfingers 7.12502
lthumb 21.1609 24.1947
rfemur -2.80151 -3.64769 32.7349
rtibia 28.7692
rfoot -5.75606 -6.84229
rtoes 4.90257
lfemur -4.08948 5.21812 -5.02001
ltibia 70.9547
lfoot 6.62915 -11.2797
ltoes -26.4174
11
root -10.8854 17.456 -0.284513 84.2577 -80.9682 -97.232
lowerback 9.74849 -2.02194 7.52789
upperback 5.46654 -2.46817 6.07864
thorax 0.24685 -1.35389 2.3428
lowerneck -9.66944 -2.72171 -4.39124
upperneck -8.55389 -3.44984 3.04783
head -0.93275 -1.75618 1.62086
rclavicle -3.52346e-014 -2.38542e-014
rhumerus -34.1148 7.34407 -78.4124
rradius 61.8985
rwrist 2.46494
rhand -12.4084 5.93487
rfingers 7.12502
rthumb 13.6635 -23.5966
lclavicle -3.52346e-014 -2.38542e-014
lhumerus -31.297 -0.82969 92.7486
lradius 4.89129
lwrist -8.45242
lhand -4.62613 -4.74646
lfingers 7.12502
lthumb 21.1526 24.1196
rfemur -2.14191 -3.5292 32.8737
rtibia 28.6192
rfoot -6.16565 -6.61631
rtoes 4.84034
lfemur -5.16165 5.45109 -5.03141
ltibia 70.4956
lfoot 5.96756 -12.0365
ltoes -25.2383
12
root -11.0188 17.4587 -0.289051 87.1879 -80.853 -100.175
lowerback 9.82307 -1.8781 7.63864
upperback 5.47253 -2.26242 6.08909
thorax 0.212797 -1.25074 2.27523
lowerneck -9.51669 -2.7026 -4.44754
upperneck -8.61169 -3.42418 3.05051
head -0.976025 -1.74175 1.63546
rclavicle -1.10325e-014 3.81667e-014
rhumerus -33.2447 7.88296 -78.3327
rradius 62.5168
rwrist 2.24296
rhand -12.4937 5.93427
rfingers 7.12502
rthumb 13.5812 -23.6028
lclavicle -1.10325e-014 3.81667e-014
lhumerus -32.0979 -1.12934 92.893
lradius 4.97579
lwrist -8.00986
lhand -4.66077 -4.88511
lfingers 7.12502
lthumb 21.1193 23.9847
rfemur -1.53006 -3.45578 32.98
rtibia 28.5112
rfoot -6.58734 -6.30241
rtoes 4.77462
lfemur -6.23998 5.67266 -5.0592
ltibia 69.9254
lfoot 5.23064 -12.6424
ltoes -23.9279
13
root -11.1516 17.4589 -0.293905 90.1018 -80.6916 -103.063
lowerback 9.8532 -1.72952 7.77269
upperback 5.47668 -2.05256 6.08571
thorax 0.200855 -1.14387 2.17782
lowerneck -9.36473 -2.68779 -4.43047
upperneck -8.69631 -3.41248 3.03018
head -1.02878 -1.73662 1.62984
rclavicle 1.2921e-015 4.77083e-014
rhumerus -32.3222 8.36848 -78.2501
rradius 63.1215
rwrist 2.14114
rhand -12.6046 6.00504
rfingers 7.12502
rthumb 13.4743 -23.5391
lclavicle 1.2921e-015 4.77083e-014
lhumerus -32.9298 -1.45069 93.0054
lradius 5.22364
lwrist -7.38949
lhand -4.64518 -5.06736
lfingers 7.12502
lthumb 21.1343 23.8008
rfemur -0.978973 -3.39448 33.103
rtibia 28.4424
rfoot -7.03004 -5.98576
rtoes 4.7784
lfemur -7.34653 5.91268 -5.04872
ltibia 69.2626
lfoot 4.32459 -13.1778
ltoes -22.963
14
root -11.2843 17.4571 -0.297608 92.9524 -80.553 -105.881
lowerback 9.86916 -1.57764 7.85367
upperback 5.48041 -1.84379 6.08352
thorax 0.198209 -1.03823 2.11043
lowerneck -9.20643 -2.67052 -4.48546
upperneck -8.77055 -3.38872 3.06809
head -1.07767 -1.72349 1.65596
rclavicle 1.37161e-014 7.39479e-014
rhumerus -31.3609 8.86582 -78.1192
rradius 63.738
rwrist 2.0173
rhand -12.6956 6.02224
rfingers 7.12502
rthumb 13.3866 -23.5277
lclavicle 1.37161e-014 7.39479e-014
lhumerus -33.7796 -1.74878 93.1498
lradius 5.59098
lwrist -6.61143
lhand -4.64707 -5.24279
lfingers 7.12502
lthumb 21.1325 23.6255
rfemur -0.461319 -3.36245 33.1569
rtibia 28.4179
rfoot -7.47814 -5.63279
rtoes 4.68977
lfemur -8.4306 6.12965 -5.095
ltibia 68.4912
lfoot 3.29785 -13.5594
ltoes -22.0076
15
root -11.4173 17.4531 -0.301683 95.7935 -80.3593 -108.676
lowerback 9.87005 -1.42493 7.96123
upperback 5.48738 -1.63457 6.08538
thorax 0.207751 -0.931848 2.03208
lowerneck -9.09383 -2.65881 -4.51743
upperneck -8.81331 -3.37426 3.06792
head -1.10981 -1.71534 1.66432
rclavicle 1.963e-014 -5.725e-014
rhumerus -30.3467 9.38201 -77.9598
rradius 64.3438
rwrist 1.93082
rhand -12.7926 6.08185
rfingers 7.12502
rthumb 13.2931 -23.4742
lclavicle 1.963e-014 -5.725e-014
lhumerus -34.6251 -2.04035 93.2764
lradius 6.04918
lwrist -5.71043
lhand -4.63686 -5.41585
lfingers 7.12502
lthumb 21.1423 23.4514
rfemur 0.0333007 -3.33332 33.2343
rtibia 28.4237
rfoot -7.96034 -5.25906
rtoes 4.62301
lfemur -9.49074 6.35547 -5.09316
ltibia 67.6212
lfoot 2.21089 -13.8697
ltoes -21.398
